<svg width="71" height="14" viewBox="0 0 71 14" fill="none" xmlns="http://www.w3.org/2000/svg">
<path d="M18.9309 3.14222H17.8285C17.593 3.14222 17.2122 3.28753 17.127 3.74351C16.8865 4.96613 16.7362 6.309 16.5708 7.50657C16.4155 6.36412 16.1649 4.84086 15.9344 3.66333C15.8693 3.38273 15.6087 3.14222 15.2279 3.14222H14.1055C13.7247 3.14222 13.4642 3.38774 13.399 3.66333C13.1184 4.84587 12.9029 6.3541 12.7626 7.49154C12.5923 6.29898 12.447 4.96112 12.2065 3.7385C12.1213 3.28252 11.7405 3.13721 11.505 3.13721H10.4026C10.0869 3.13721 9.61089 3.37271 9.66601 3.93893C9.88147 5.89311 10.4377 8.43356 11.074 10.7435C11.1742 11.1694 11.515 11.3298 11.8056 11.3298H13.2587C13.7047 11.3298 13.9402 10.974 13.9803 10.7385L14.6517 7.66691H14.6818L15.3532 10.7385C15.3983 10.974 15.6288 11.3298 16.0747 11.3298H17.5279C17.8135 11.3298 18.1592 11.1694 18.2594 10.7435C18.8958 8.43356 19.452 5.89311 19.6674 3.93893C19.7226 3.37271 19.2465 3.13721 18.9309 3.13721V3.14222Z" fill="white"/>
<path d="M1.06228 1.47339C1.06228 1.06753 1.39299 0.736816 1.79885 0.736816H3.14674C3.55261 0.736816 3.88332 1.06753 3.88332 1.47339V3.14197H4.59485C4.87545 3.14197 5.10093 3.36745 5.10093 3.64806V4.46982C5.10093 4.75042 4.87545 4.9759 4.59485 4.9759H3.88332V8.83918C3.88332 9.31019 4.17896 9.47554 4.59485 9.47554C4.87545 9.47554 5.10093 9.70103 5.10093 9.98163V10.8335C5.10093 11.1141 4.87545 11.3395 4.59485 11.3395C4.199 11.3696 3.79313 11.3846 3.49248 11.3846C1.90909 11.3846 1.05727 10.4176 1.05727 8.59866V4.9759H0.506085C0.225483 4.9759 0 4.75042 0 4.46982V3.64806C0 3.36745 0.225483 3.14197 0.506085 3.14197H1.06228V1.47339Z" fill="white"/>
<path d="M31.0565 3.72786C31.1267 3.39214 31.4223 3.1416 31.7781 3.1416H32.8303C33.2362 3.1416 33.5669 3.47231 33.5669 3.87818C33.5669 3.91827 33.5669 3.95835 33.5569 3.99844C33.1861 6.27832 32.3694 9.10438 31.6278 11.5296C31.0616 13.3785 30.325 13.9999 28.927 13.9999C28.5863 13.9999 28.2104 13.9949 27.9198 13.9798C27.6392 13.9798 27.4137 13.7543 27.4137 13.4737V12.5969C27.4137 12.3163 27.6392 12.0908 27.9198 12.0908C27.9198 12.0908 27.9649 12.0908 27.99 12.0908C28.6364 12.0908 28.8568 11.6348 28.8518 11.4694C28.8518 11.1989 28.7967 11.0736 28.7366 10.8631C28.2205 9.2096 27.6092 6.57897 27.078 4.0285C27.068 3.97839 27.063 3.92829 27.063 3.87818C27.063 3.47231 27.3937 3.1416 27.7996 3.1416H28.8769C29.2176 3.1416 29.5082 3.37711 29.5884 3.69278C29.864 4.71497 30.1546 6.64411 30.3801 7.83165H30.4102C30.6056 6.50882 30.8411 4.67489 31.0465 3.72786H31.0565Z" fill="white"/>
<path d="M22.1022 11.4344C20.7393 11.4344 19.8574 10.5174 19.8574 9.10436C19.8574 7.69133 20.8696 6.70421 23.0442 6.138C23.5403 6.02275 23.7508 5.78224 23.7508 5.34129C23.7508 5.03063 23.5303 4.80514 23.2246 4.80514C22.949 4.80514 22.7536 4.94545 22.6935 5.18596C22.5883 5.61187 22.3027 5.80729 21.7916 5.80729H21.075C20.5639 5.80729 20.2483 5.49663 20.2483 5.00056C20.2483 4.91538 20.2633 4.83521 20.2833 4.75504C20.7443 3.18668 22.3227 2.95117 23.2196 2.95117C24.2518 2.95117 24.9634 3.11653 25.4594 3.4773C26.0407 3.8982 26.3463 4.59469 26.3864 5.61187C26.4365 6.81445 26.4766 9.21459 26.4014 10.5374C26.4014 10.9784 26.0306 11.3391 25.5747 11.3391H24.6427C24.2168 11.3391 23.8861 11.0285 23.8209 10.5825C23.4652 11.1287 22.8488 11.4344 22.0972 11.4344H22.1022ZM23.7959 7.68131C23.6856 7.7715 23.5353 7.84666 23.375 7.92683C23.0042 8.11223 22.5883 8.32268 22.5332 8.80371C22.5081 9.01416 22.5582 9.19455 22.6735 9.31982C22.7737 9.43006 22.924 9.49519 23.0743 9.49519C23.5052 9.49519 23.7908 9.29978 23.7908 8.34774V7.68131H23.7959Z" fill="white"/>
<path d="M8.60354 0.967072C8.60354 0.967072 8.5835 0.921976 8.56847 0.896922C8.29288 0.365784 7.73668 0 7.10032 0C6.18837 0 5.44678 0.741589 5.44678 1.65354C5.44678 2.18468 5.69731 2.65569 6.08314 2.95634C6.55415 3.32212 7.03518 4.0136 5.89774 5.0859C5.68228 5.31138 5.83761 5.48676 5.98293 5.58196C6.33368 5.80744 6.56417 5.77237 6.93497 5.58196C7.89202 5.0859 9.62072 3.07659 8.60855 0.967072H8.60354Z" fill="#82AB42"/>
<path d="M40.412 2.7998C39.3648 2.7998 38.7392 3.27582 38.2632 4.1978V3.64662C38.2632 3.31591 37.9926 3.04533 37.6619 3.04533H36.5896C36.2589 3.04533 35.9883 3.31591 35.9883 3.64662V13.3073C35.9883 13.638 36.2589 13.9086 36.5896 13.9086H37.7871C38.1178 13.9086 38.3884 13.638 38.3884 13.3073V10.0704C38.8795 10.8571 39.465 11.2379 40.417 11.2379C42.6418 11.2379 43.8758 9.23359 43.8758 6.90861C43.8758 4.58363 42.7528 2.7998 40.5731 2.7998H40.412ZM40.1981 8.958C39.3487 8.958 38.7241 8.20639 38.7241 7.01885C38.7241 5.8313 39.3988 5.06466 40.1981 5.06466C41.1351 5.06466 41.7362 5.8313 41.7362 7.00381C41.7362 8.17633 41.1301 8.958 40.1981 8.958Z" fill="white"/>
<path d="M47.0296 8.86399V0.601288C47.0296 0.27058 46.759 0 46.4283 0H45.1706C44.8399 0 44.5693 0.27058 44.5693 0.601288V9.21475C44.5693 10.5376 45.3059 11.3393 46.6588 11.3393C46.8643 11.3393 47.0998 11.2992 47.3052 11.2391C47.5607 11.1639 47.7361 10.9334 47.7361 10.6679V9.22978C47.676 9.27487 47.5658 9.30494 47.4154 9.30494C47.1849 9.30494 47.0296 9.14961 47.0296 8.85898V8.86399Z" fill="white"/>
<path d="M53.2819 7.88203C53.2819 8.69878 52.9273 9.23493 52.1406 9.23493C51.3539 9.23493 50.97 8.69874 50.97 7.88199V3.75314C50.97 3.42244 50.6995 3.15186 50.3687 3.15186H49.1111C48.7803 3.15186 48.5098 3.42244 48.5098 3.75314V7.74169C48.5098 10.0015 49.9078 11.3394 52.1406 11.3394C54.4656 11.3394 55.7422 10.0016 55.7422 7.74173V3.75319C55.7422 3.42248 55.4716 3.1519 55.1409 3.1519H53.8832C53.5525 3.1519 53.2819 3.42248 53.2819 3.75319V7.88203Z" fill="white"/>
<path d="M60.2634 6.5341L59.4967 6.21342C59.0808 6.04305 58.9405 5.89273 58.9405 5.61213C58.9405 5.24133 59.3564 5.02587 60.0629 5.02587C60.3335 5.02587 60.5891 5.06596 60.8195 5.12609C61.1903 5.22129 61.5511 4.93568 61.5511 4.54985V3.92852C61.5511 3.66796 61.3858 3.43747 61.1402 3.36231C60.7694 3.24205 60.2684 3.15186 59.7673 3.15186C57.753 3.15186 56.5654 4.21413 56.5654 5.552C56.5654 6.64434 57.1667 7.27569 58.2591 7.75171L59.0758 8.09244C59.5518 8.29287 59.7372 8.46323 59.7372 8.75386C59.7372 9.15472 59.3865 9.46037 58.4745 9.46037C58.0887 9.46037 57.6928 9.3802 57.3471 9.25994C56.9613 9.12966 56.5654 9.42029 56.5654 9.82616V10.4074C56.5654 10.6229 56.6757 10.8283 56.8661 10.9285C57.3271 11.174 58.0085 11.3494 58.7952 11.3494C60.9198 11.3494 62.0121 10.1519 62.0121 8.77891C62.0121 7.68657 61.476 7.04019 60.2583 6.5341H60.2634Z" fill="white"/>
<path d="M65.585 0.963188C65.585 0.431234 66.0162 0 66.5481 0C67.0801 0 67.5113 0.431234 67.5113 0.963188V8.05576H65.585V0.963188Z" fill="#82AB42"/>
<rect x="62.5205" y="4.99072" width="1.92638" height="8.05576" rx="0.963189" transform="rotate(-90 62.5205 4.99072)" fill="#82AB42"/>
<path d="M64.709 8.05566L64.709 7.43397L66.5478 6.39197L66.5478 8.05566L64.709 8.05566Z" fill="#82AB42"/>
<path d="M68.3867 8.05566L68.3867 7.43397L66.5479 6.39197L66.5479 8.05566L68.3867 8.05566Z" fill="#82AB42"/>
</svg>
